<svg width="177" height="42" viewBox="0 0 177 42" fill="none" xmlns="http://www.w3.org/2000/svg">
<path d="M170.131 33.0339C170.611 32.2899 170.887 31.4739 170.959 30.5859C171.031 29.6979 171.067 28.8219 171.067 27.9579C170.371 28.8459 169.519 29.4699 168.511 29.8299C167.503 30.1899 166.411 30.3699 165.235 30.3699C163.867 30.3699 162.679 30.1659 161.671 29.7579C160.687 29.3499 159.907 28.7259 159.331 27.8859C158.755 27.1179 158.359 26.2179 158.143 25.1859C157.927 24.1299 157.819 22.9899 157.819 21.7659V11.1099H162.895V21.1539C162.895 21.8019 162.943 22.4379 163.039 23.0619C163.159 23.6619 163.399 24.1659 163.759 24.5739C164.335 25.4379 165.379 25.8699 166.891 25.8699C167.611 25.8699 168.283 25.7259 168.907 25.4379C169.531 25.1259 170.023 24.6459 170.383 23.9979C170.695 23.4459 170.887 22.8699 170.959 22.2699C171.031 21.6459 171.067 20.9739 171.067 20.2539V11.1099H176.179V26.6979C176.179 27.5619 176.167 28.4499 176.143 29.3619C176.143 30.2499 176.071 31.1259 175.927 31.9899C175.807 32.8539 175.579 33.6939 175.243 34.5099C174.907 35.3259 174.439 36.0819 173.839 36.7779C172.999 37.7379 171.895 38.5059 170.527 39.0819C169.183 39.6579 167.563 39.9339 165.667 39.9099C164.275 39.9339 162.895 39.7419 161.527 39.3339C160.159 38.9499 158.899 38.3859 157.747 37.6419L159.367 33.3219C159.991 33.7779 160.819 34.1979 161.851 34.5819C162.907 34.9659 164.143 35.1579 165.559 35.1579C166.711 35.1579 167.647 34.9659 168.367 34.5819C169.111 34.2219 169.699 33.7059 170.131 33.0339Z" fill="#090909"/>
<path d="M146.717 25.8699C147.677 25.8699 148.433 25.6419 148.985 25.1859C149.561 24.7299 149.909 24.2139 150.029 23.6379H155.357C155.189 24.8619 154.841 25.8939 154.313 26.7339C153.785 27.5739 153.125 28.2699 152.333 28.8219C151.565 29.3739 150.689 29.7699 149.705 30.0099C148.721 30.2499 147.701 30.3699 146.645 30.3699C145.061 30.3699 143.681 30.1539 142.505 29.7219C141.353 29.2659 140.393 28.6179 139.625 27.7779C138.857 26.9139 138.269 25.8819 137.861 24.6819C137.477 23.4579 137.285 22.0899 137.285 20.5779C137.285 19.1139 137.501 17.7699 137.933 16.5459C138.365 15.3219 138.977 14.2779 139.769 13.4139C140.585 12.5499 141.581 11.8899 142.757 11.4339C143.933 10.9539 145.277 10.7139 146.789 10.7139C147.893 10.7139 148.925 10.8459 149.885 11.1099C150.869 11.3739 151.733 11.7819 152.477 12.3339C153.245 12.8859 153.869 13.5939 154.349 14.4579C154.853 15.2979 155.189 16.3059 155.357 17.4819H150.029C149.909 16.9059 149.549 16.3899 148.949 15.9339C148.373 15.4779 147.617 15.2499 146.681 15.2499C145.889 15.2499 145.205 15.3939 144.629 15.6819C144.053 15.9699 143.597 16.3659 143.261 16.8699C142.925 17.3739 142.685 17.9499 142.541 18.5979C142.397 19.2459 142.325 19.9299 142.325 20.6499C142.325 21.4179 142.409 22.1259 142.577 22.7739C142.745 23.3979 142.997 23.9499 143.333 24.4299C143.669 24.8859 144.113 25.2459 144.665 25.5099C145.241 25.7499 145.925 25.8699 146.717 25.8699Z" fill="#090909"/>
<path d="M121.83 13.5218C123.366 11.6738 125.262 10.7378 127.518 10.7138C128.742 10.6898 129.822 10.8938 130.758 11.3258C131.694 11.7338 132.45 12.2978 133.026 13.0178C133.722 13.8578 134.202 14.8418 134.466 15.9698C134.73 17.0738 134.862 18.3098 134.862 19.6778V30.0818H129.75V20.0738C129.75 19.4018 129.678 18.7658 129.534 18.1658C129.414 17.5418 129.198 17.0138 128.886 16.5818C128.574 16.1258 128.154 15.7898 127.626 15.5738C127.122 15.3578 126.546 15.2498 125.898 15.2498C125.082 15.2738 124.386 15.4538 123.81 15.7898C123.258 16.1258 122.838 16.5578 122.55 17.0858C122.262 17.5898 122.058 18.1658 121.938 18.8138C121.842 19.4378 121.794 20.0738 121.794 20.7218V30.0818H116.718V11.1098H121.578L121.83 13.5218Z" fill="#090909"/>
<path d="M105.301 26.2299C106.021 26.2299 106.633 26.1219 107.137 25.9059C107.665 25.6659 108.097 25.2819 108.433 24.7539H113.761C113.497 25.7379 113.089 26.5899 112.537 27.3099C112.009 28.0299 111.361 28.6179 110.593 29.0739C109.849 29.5299 109.021 29.8659 108.109 30.0819C107.197 30.2739 106.237 30.3699 105.229 30.3699C102.157 30.3699 99.8285 29.5059 98.2445 27.7779C96.6845 26.0499 95.9045 23.6259 95.9045 20.5059C95.9045 19.0899 96.1085 17.7819 96.5165 16.5819C96.9485 15.3819 97.5485 14.3499 98.3165 13.4859C99.0845 12.5979 100.033 11.9139 101.161 11.4339C102.313 10.9539 103.621 10.7139 105.085 10.7139C106.789 10.7139 108.265 11.0139 109.513 11.6139C110.761 12.2139 111.745 13.0419 112.465 14.0979C113.209 15.1299 113.701 16.3419 113.941 17.7339C114.205 19.1259 114.205 20.6139 113.941 22.1979H100.981C101.077 23.3259 101.473 24.2859 102.169 25.0779C102.865 25.8459 103.909 26.2299 105.301 26.2299ZM109.225 18.7059C109.225 18.1059 109.117 17.5779 108.901 17.1219C108.685 16.6419 108.397 16.2579 108.037 15.9699C107.677 15.6579 107.245 15.4299 106.741 15.2859C106.261 15.1419 105.757 15.0699 105.229 15.0699C103.957 15.0939 102.961 15.4419 102.241 16.1139C101.545 16.7619 101.137 17.6259 101.017 18.7059H109.225Z" fill="#090909"/>
<path d="M88.2492 28.1378C87.5292 28.9538 86.6652 29.5298 85.6572 29.8658C84.6492 30.2018 83.5572 30.3698 82.3812 30.3698C81.2052 30.3698 80.0532 30.1898 78.9252 29.8298C77.8212 29.4458 76.8612 28.8338 76.0452 27.9938C75.1332 27.0338 74.4972 25.9298 74.1372 24.6818C73.7772 23.4338 73.5972 22.1498 73.5972 20.8298C73.5972 17.7098 74.4612 15.2138 76.1892 13.3418C76.9332 12.5258 77.8932 11.8898 79.0692 11.4338C80.2692 10.9778 81.5532 10.7618 82.9212 10.7858C83.8092 10.7378 84.7692 10.8938 85.8012 11.2538C86.8332 11.6138 87.7212 12.2138 88.4652 13.0538L89.0052 11.1098H93.3972V28.8938C93.3972 29.6618 93.3492 30.4178 93.2532 31.1618C93.1812 31.9298 93.0492 32.6618 92.8572 33.3578C92.6652 34.0778 92.3772 34.7618 91.9932 35.4098C91.5612 36.2018 91.0332 36.8738 90.4092 37.4258C89.8092 37.9778 89.1372 38.4338 88.3932 38.7938C87.6492 39.1778 86.8572 39.4538 86.0172 39.6218C85.1772 39.7898 84.3252 39.8738 83.4612 39.8738C82.3572 39.8738 81.3012 39.7418 80.2932 39.4778C79.2852 39.2378 78.3612 38.8298 77.5212 38.2538C76.7052 37.7018 76.0212 36.9938 75.4692 36.1298C74.9412 35.2658 74.5932 34.2338 74.4252 33.0338H79.8252C79.9212 33.6098 80.3052 34.1258 80.9772 34.5818C81.6492 35.0378 82.4652 35.2658 83.4252 35.2658C84.4572 35.2658 85.2972 35.0618 85.9452 34.6538C86.6172 34.2458 87.1212 33.7058 87.4572 33.0338C87.7932 32.3618 88.0092 31.5938 88.1052 30.7298C88.2012 29.8658 88.2492 29.0018 88.2492 28.1378ZM83.5332 25.8698C84.3252 25.8698 85.0212 25.7258 85.6212 25.4378C86.2452 25.1498 86.7492 24.7658 87.1332 24.2858C87.5172 23.7818 87.8052 23.2058 87.9972 22.5578C88.1892 21.8858 88.2852 21.1778 88.2852 20.4338C88.2852 18.9458 87.8652 17.7218 87.0252 16.7618C86.2092 15.7778 85.0332 15.2738 83.4972 15.2498C82.7052 15.2498 81.9972 15.3938 81.3732 15.6818C80.7732 15.9698 80.2692 16.3538 79.8612 16.8338C79.4772 17.3138 79.1892 17.8778 78.9972 18.5258C78.8052 19.1738 78.7092 19.8698 78.7092 20.6138C78.7092 21.4058 78.8052 22.1258 78.9972 22.7738C79.2132 23.3978 79.5252 23.9498 79.9332 24.4298C80.3412 24.8858 80.8452 25.2458 81.4452 25.5098C82.0452 25.7498 82.7412 25.8698 83.5332 25.8698Z" fill="#090909"/>
<path d="M66.3524 27.7419C65.6324 28.7019 64.7564 29.3859 63.7244 29.7939C62.6924 30.2019 61.4924 30.3939 60.1244 30.3699C58.3724 30.3219 56.9084 29.8299 55.7324 28.8939C55.1084 28.3659 54.6164 27.7419 54.2564 27.0219C53.9204 26.2779 53.7524 25.4019 53.7524 24.3939C53.7764 23.3619 54.0044 22.4499 54.4364 21.6579C54.8924 20.8419 55.5764 20.1699 56.4884 19.6419C57.2564 19.2339 58.1204 18.9459 59.0804 18.7779C60.0644 18.6099 61.1324 18.5259 62.2844 18.5259H66.1724C66.2444 17.3499 65.9684 16.4739 65.3444 15.8979C64.7444 15.2979 63.8924 14.9859 62.7884 14.9619C62.4284 14.9619 62.0564 14.9859 61.6724 15.0339C61.2884 15.0819 60.9284 15.1779 60.5924 15.3219C60.2804 15.4659 60.0044 15.6699 59.7644 15.9339C59.5484 16.1739 59.4044 16.4739 59.3324 16.8339H54.1124C54.2324 15.6819 54.5444 14.7219 55.0484 13.9539C55.5764 13.1619 56.2364 12.5259 57.0284 12.0459C57.8204 11.5659 58.6964 11.2299 59.6564 11.0379C60.6404 10.8219 61.6484 10.7139 62.6804 10.7139C63.2564 10.7139 63.8444 10.7499 64.4444 10.8219C65.0444 10.8699 65.6324 10.9899 66.2084 11.1819C66.7844 11.3499 67.3244 11.5899 67.8284 11.9019C68.3564 12.1899 68.8484 12.5739 69.3044 13.0539C70.1204 13.9899 70.6244 15.0699 70.8164 16.2939C71.0324 17.4939 71.1284 18.6699 71.1044 19.8219V30.0819H66.4604L66.3524 27.7419ZM66.1724 21.6939H62.4644C62.1044 21.6939 61.6964 21.7299 61.2404 21.8019C60.7844 21.8739 60.3884 22.0059 60.0524 22.1979C59.7164 22.3899 59.4284 22.6419 59.1884 22.9539C58.9724 23.2659 58.8644 23.6499 58.8644 24.1059C58.8644 24.4899 58.9364 24.8259 59.0804 25.1139C59.2484 25.4019 59.4524 25.6419 59.6924 25.8339C59.9564 26.0259 60.2684 26.1819 60.6284 26.3019C60.9884 26.3979 61.3484 26.4459 61.7084 26.4459C62.4044 26.4699 63.0524 26.3499 63.6524 26.0859C64.2764 25.8219 64.8164 25.4499 65.2724 24.9699C65.5604 24.5859 65.7764 24.1539 65.9204 23.6739C66.0884 23.1699 66.1724 22.5099 66.1724 21.6939Z" fill="#090909"/>
<path fill-rule="evenodd" clip-rule="evenodd" d="M39.9673 22.0608C39.764 25.6149 38.6148 29.058 36.6294 32.0294C34.4318 35.3184 31.3082 37.8819 27.6537 39.3956C23.9992 40.9094 19.9778 41.3054 16.0982 40.5337C12.2186 39.762 8.65492 37.8572 5.85787 35.0602C3.06082 32.2631 1.15601 28.6994 0.384303 24.8198C-0.387401 20.9402 0.00866568 16.9189 1.52242 13.2643C3.03617 9.60982 5.59962 6.48625 8.8886 4.28862C11.86 2.30317 15.3031 1.15407 18.8572 0.950684V10.9835C17.2839 11.1645 15.7702 11.7174 14.4443 12.6033C12.7998 13.7021 11.5181 15.2639 10.7612 17.0912C10.0043 18.9184 9.8063 20.9291 10.1922 22.8689C10.578 24.8087 11.5304 26.5906 12.9289 27.9891C14.3275 29.3876 16.1093 30.34 18.0491 30.7259C19.9889 31.1117 21.9996 30.9137 23.8268 30.1568C25.6541 29.3999 27.2159 28.1182 28.3147 26.4737C29.2006 25.1478 29.7535 23.6342 29.9345 22.0608H39.9673Z" fill="#090909"/>
<path fill-rule="evenodd" clip-rule="evenodd" d="M29.9947 0.917969H21.8135V10.9179H29.9947V19.0994L39.9947 19.0994V10.9179H39.9953V0.917969H38.1653H29.9947Z" fill="#090909"/>
</svg>
