<svg width="249" height="54" viewBox="0 0 249 54" fill="none" xmlns="http://www.w3.org/2000/svg">
<path d="M232.111 19.6536H236.567L236.742 21.9863C237.322 21.1043 238.041 20.4312 238.9 19.967C239.782 19.4795 240.757 19.2358 241.825 19.2358C246.165 19.2358 248.323 21.8934 248.3 27.2086V28.1486H248.335V37.0614H243.635V28.1486H243.6C243.6 26.4775 243.31 25.3169 242.73 24.6671C242.173 23.994 241.36 23.6574 240.293 23.6574C239.155 23.6574 238.285 24.0288 237.682 24.7715C237.101 25.491 236.811 26.5355 236.811 27.9049V37.0614H232.111V19.6536Z" fill="#090909"/>
<path d="M220.064 37.4791C218.3 37.4791 216.721 37.0962 215.329 36.3302C213.936 35.5411 212.845 34.4618 212.056 33.0924C211.29 31.6998 210.907 30.1215 210.907 28.3575C210.907 26.5935 211.29 25.0268 212.056 23.6574C212.845 22.2648 213.925 21.1855 215.294 20.4196C216.663 19.6304 218.23 19.2358 219.994 19.2358C221.758 19.2358 223.325 19.6304 224.694 20.4196C226.087 21.1855 227.166 22.2648 227.932 23.6574C228.721 25.0268 229.116 26.5935 229.116 28.3575C229.116 30.1215 228.733 31.6998 227.967 33.0924C227.201 34.4618 226.122 35.5411 224.729 36.3302C223.36 37.0962 221.804 37.4791 220.064 37.4791ZM215.747 28.3575C215.747 29.7733 216.141 30.9338 216.93 31.839C217.743 32.721 218.787 33.162 220.064 33.162C221.317 33.162 222.338 32.721 223.127 31.839C223.917 30.9338 224.311 29.7733 224.311 28.3575C224.311 26.9417 223.905 25.7928 223.093 24.9108C222.303 24.0056 221.271 23.553 219.994 23.553C218.764 23.553 217.743 24.0056 216.93 24.9108C216.141 25.7928 215.747 26.9417 215.747 28.3575Z" fill="#090909"/>
<path d="M202.946 19.6537H207.646V37.0614H202.946V19.6537ZM205.313 16.9032C204.571 16.9032 203.932 16.6363 203.398 16.1025C202.865 15.5686 202.598 14.942 202.598 14.2224C202.598 13.4797 202.865 12.8414 203.398 12.3076C203.955 11.7738 204.594 11.5068 205.313 11.5068C206.033 11.5068 206.659 11.7738 207.193 12.3076C207.727 12.8414 207.994 13.4797 207.994 14.2224C207.994 14.942 207.727 15.5686 207.193 16.1025C206.683 16.6363 206.056 16.9032 205.313 16.9032Z" fill="#090909"/>
<path d="M195.833 37.4789C193.907 37.4789 192.433 37.0031 191.412 36.0515C190.414 35.0998 189.915 33.7304 189.915 31.9432V23.6223H187.129V19.6534H189.915V14.2222H194.615V19.6534H198.932V23.6223H194.615V30.8988C194.615 31.6647 194.766 32.2334 195.067 32.6047C195.392 32.9529 195.88 33.127 196.53 33.127C196.994 33.127 197.516 32.9181 198.096 32.5003L199.767 36.0166C199.187 36.4576 198.549 36.8058 197.853 37.0611C197.156 37.3396 196.483 37.4789 195.833 37.4789Z" fill="#090909"/>
<path d="M180.438 35.0769C179.464 36.6784 177.862 37.4791 175.634 37.4791C173.545 37.4791 171.92 37.0149 170.76 36.0865C169.622 35.1581 169.054 33.8467 169.054 32.1524C169.054 30.3188 169.669 28.9261 170.899 27.9745C172.129 27.0229 173.87 26.5471 176.121 26.5471H180.264C179.939 24.3885 178.883 23.3092 177.096 23.3092C175.564 23.3092 174.404 23.9591 173.615 25.2589L169.471 23.8315C170.029 22.5317 170.934 21.4408 172.187 20.5588C173.464 19.6768 175.1 19.2358 177.096 19.2358C179.696 19.2358 181.669 19.967 183.015 21.4292C184.361 22.8683 185.011 24.8643 184.964 27.4175L184.895 37.0614H180.508L180.438 35.0769ZM173.858 32.0131C173.858 32.5005 174.09 32.8951 174.555 33.1968C175.019 33.4754 175.657 33.6146 176.469 33.6146C177.189 33.6146 177.839 33.4405 178.419 33.0924C179.023 32.7442 179.498 32.2916 179.847 31.7346C180.195 31.1775 180.369 30.5973 180.369 29.9938H177.792C176.377 29.9938 175.367 30.1679 174.763 30.516C174.16 30.841 173.858 31.34 173.858 32.0131Z" fill="#090909"/>
<path d="M159.414 37.4791C157.603 37.4791 155.99 37.0962 154.574 36.3302C153.159 35.5411 152.044 34.4618 151.232 33.0924C150.443 31.6998 150.048 30.1215 150.048 28.3575C150.048 26.5935 150.443 25.0268 151.232 23.6574C152.021 22.2648 153.124 21.1855 154.54 20.4196C155.955 19.6304 157.557 19.2358 159.344 19.2358C161.131 19.2358 162.733 19.6768 164.149 20.5588C165.588 21.4408 166.632 22.6826 167.282 24.2841L162.86 25.8508C162.535 25.1777 162.036 24.6438 161.363 24.2493C160.69 23.8547 159.948 23.6574 159.135 23.6574C157.882 23.6574 156.861 24.0984 156.071 24.9804C155.282 25.8392 154.888 26.9649 154.888 28.3575C154.888 29.7269 155.282 30.8526 156.071 31.7346C156.884 32.6166 157.928 33.0576 159.205 33.0576C160.017 33.0576 160.76 32.8487 161.433 32.4309C162.106 31.9899 162.605 31.4096 162.93 30.6901L167.386 32.2568C166.713 33.9048 165.669 35.1929 164.253 36.1213C162.837 37.0265 161.224 37.4791 159.414 37.4791Z" fill="#090909"/>
<path d="M142.087 19.6537H146.787V37.0614H142.087V19.6537ZM144.454 16.9032C143.712 16.9032 143.073 16.6363 142.54 16.1025C142.006 15.5686 141.739 14.942 141.739 14.2224C141.739 13.4797 142.006 12.8414 142.54 12.3076C143.097 11.7738 143.735 11.5068 144.454 11.5068C145.174 11.5068 145.801 11.7738 146.334 12.3076C146.868 12.8414 147.135 13.4797 147.135 14.2224C147.135 14.942 146.868 15.5686 146.334 16.1025C145.824 16.6363 145.197 16.9032 144.454 16.9032Z" fill="#090909"/>
<path d="M133.173 11.9941H137.873V37.0613H133.173V11.9941Z" fill="#090909"/>
<path d="M112.437 19.6536H116.893L117.067 22.0559C117.648 21.1507 118.379 20.4544 119.261 19.967C120.166 19.4795 121.199 19.2358 122.359 19.2358C123.938 19.2358 125.319 19.6072 126.502 20.3499C127.709 21.0927 128.626 22.1487 129.253 23.5181C129.903 24.8875 130.228 26.5007 130.228 28.3575C130.228 30.1911 129.903 31.8042 129.253 33.1968C128.626 34.5662 127.709 35.6223 126.502 36.365C125.319 37.1078 123.938 37.4791 122.359 37.4791C121.222 37.4791 120.212 37.247 119.33 36.7828C118.448 36.2954 117.717 35.6107 117.137 34.7287V44.0244H112.437V19.6536ZM117.137 28.3575C117.137 29.7733 117.508 30.9338 118.251 31.839C119.017 32.721 119.992 33.162 121.176 33.162C122.383 33.162 123.381 32.7094 124.17 31.8042C124.959 30.899 125.354 29.7501 125.354 28.3575C125.354 26.9649 124.959 25.8276 124.17 24.9456C123.404 24.0404 122.417 23.5878 121.211 23.5878C120.004 23.5878 119.017 24.0288 118.251 24.9108C117.508 25.7928 117.137 26.9417 117.137 28.3575Z" fill="#090909"/>
<path d="M91.5271 19.6536H95.9835L96.1576 22.0559C96.7378 21.1507 97.4689 20.4544 98.3509 19.967C99.2561 19.4795 100.289 19.2358 101.45 19.2358C103.028 19.2358 104.409 19.6072 105.593 20.3499C106.799 21.0927 107.716 22.1487 108.343 23.5181C108.993 24.8875 109.318 26.5007 109.318 28.3575C109.318 30.1911 108.993 31.8042 108.343 33.1968C107.716 34.5662 106.799 35.6223 105.593 36.365C104.409 37.1078 103.028 37.4791 101.45 37.4791C100.312 37.4791 99.3026 37.247 98.4206 36.7828C97.5386 36.2954 96.8074 35.6107 96.2272 34.7287V44.0244H91.5271V19.6536ZM96.2272 28.3575C96.2272 29.7733 96.5986 30.9338 97.3413 31.839C98.1072 32.721 99.0821 33.162 100.266 33.162C101.473 33.162 102.471 32.7094 103.26 31.8042C104.049 30.899 104.444 29.7501 104.444 28.3575C104.444 26.9649 104.049 25.8276 103.26 24.9456C102.494 24.0404 101.508 23.5878 100.301 23.5878C99.0937 23.5878 98.1072 24.0288 97.3413 24.9108C96.5986 25.7928 96.2272 26.9417 96.2272 28.3575Z" fill="#090909"/>
<path d="M83.2001 35.0769C82.2253 36.6784 80.6237 37.4791 78.3956 37.4791C76.3066 37.4791 74.6819 37.0149 73.5214 36.0865C72.3841 35.1581 71.8154 33.8467 71.8154 32.1524C71.8154 30.3188 72.4305 28.9261 73.6606 27.9745C74.8908 27.0229 76.6316 26.5471 78.883 26.5471H83.026C82.7011 24.3885 81.645 23.3092 79.8578 23.3092C78.3259 23.3092 77.1654 23.9591 76.3763 25.2589L72.2332 23.8315C72.7903 22.5317 73.6955 21.4408 74.9488 20.5588C76.2254 19.6768 77.8617 19.2358 79.8578 19.2358C82.4574 19.2358 84.4302 19.967 85.7764 21.4292C87.1226 22.8683 87.7725 24.8643 87.7261 27.4175L87.6565 37.0614H83.2697L83.2001 35.0769ZM76.62 32.0131C76.62 32.5005 76.8521 32.8951 77.3163 33.1968C77.7805 33.4754 78.4188 33.6146 79.2311 33.6146C79.9506 33.6146 80.6005 33.4405 81.1808 33.0924C81.7843 32.7442 82.2601 32.2916 82.6082 31.7346C82.9564 31.1775 83.1305 30.5973 83.1305 29.9938H80.5541C79.1383 29.9938 78.1286 30.1679 77.5252 30.516C76.9217 30.841 76.62 31.34 76.62 32.0131Z" fill="#090909"/>
<path fill-rule="evenodd" clip-rule="evenodd" d="M24.2147 43.6299L12.9685 43.6299C6.34715 43.6299 0.979492 38.2623 0.979492 31.6409C0.979492 25.8015 5.42995 21.0015 11.124 20.4479C11.5255 14.6014 16.3952 9.9834 22.3436 9.9834H22.7149C25.9147 9.9834 28.8124 11.277 30.9135 13.3698C33.7304 11.2439 37.237 9.9834 41.038 9.9834H41.8826C50.7074 9.9834 57.8612 17.1373 57.8612 25.962C57.8612 35.7197 49.951 43.6299 40.1933 43.6299L24.2148 43.6299L24.2147 43.6299Z" fill="#090909"/>
</svg>
