<svg width="76" height="76" viewBox="0 0 76 76" fill="none" xmlns="http://www.w3.org/2000/svg">
<circle cx="38" cy="38" r="38" fill="#FFF3E0"/>
<path d="M53.2007 56.1142C63.2048 47.7191 64.5093 32.8036 56.1142 22.7994C47.7191 12.7952 32.8035 11.4908 22.7993 19.8859C12.7952 28.281 11.4907 43.1965 19.8858 53.2007C28.2809 63.2049 43.1965 64.5093 53.2007 56.1142Z" fill="white"/>
<path d="M41.4558 14.6722C36.6809 18.2193 32.9065 23.4035 31.042 29.77C38.5909 23.4489 47.6859 20.8569 55.0983 22.2666L55.0074 22.1756C51.7786 17.8555 46.8673 15.127 41.4558 14.6722Z" fill="#FF9C08"/>
<path d="M20.81 44.9129C22.3561 39.1831 25.8577 33.7715 31.0873 29.7242C27.9496 39.0012 29.7686 54.8265 33.7704 61.2385C28.3134 59.9652 23.3111 57.1002 19.4457 53.0075L18.991 52.5527L20.81 44.9129Z" fill="#FF9C08"/>
<path d="M22.8111 19.9017C17.9452 23.4033 14.8984 28.8603 14.5801 34.8176L30.7237 29.406L22.8111 19.9017Z" fill="#FF9C08"/>
<path d="M61.2829 38.1373C53.7795 32.6803 41.2739 28.5876 31.042 29.7245L30.7236 29.4061L53.1883 56.1L54.5071 54.7812C58.9637 50.4156 61.4193 44.3674 61.2829 38.1373Z" fill="#FF9C08"/>
<path d="M31.4967 55.3268C30.9055 55.3268 30.3598 54.9175 30.1779 54.3264C27.8132 45.8225 27.6768 36.4547 29.7686 29.3605C30.8145 25.7225 32.4971 22.4029 34.7254 19.447C35.1801 18.8558 36.0442 18.7194 36.6354 19.1741C37.2265 19.6289 37.363 20.4929 36.9082 21.0841C34.8618 23.7671 33.3611 26.8139 32.4062 30.0881C30.4507 36.7275 30.6326 45.5042 32.8609 53.5533C33.0428 54.2809 32.6335 55.0085 31.9059 55.2359C31.724 55.3268 31.6331 55.3268 31.4967 55.3268Z" fill="#090909"/>
<path d="M57.1446 21.9027C48.277 11.3524 32.4971 9.98818 21.9014 18.8558C16.8082 23.1305 13.6704 29.1787 13.0793 35.818C12.4881 42.4574 14.5345 48.9603 18.8546 54.0535C23.1293 59.1922 29.1774 62.33 35.8168 62.8757C36.5444 62.9212 37.3175 62.9667 38.0451 62.9667C43.9114 62.9667 49.5503 60.9203 54.0978 57.1004C59.2365 52.8257 62.3743 46.7775 62.92 40.1382C63.4657 33.4988 61.4648 27.0413 57.1446 21.9027ZM60.146 35.7271C53.0519 31.225 43.684 28.4056 35.453 28.2237C41.6831 24.1764 48.6863 22.4938 54.8709 23.6307C54.9163 23.6307 54.9618 23.6307 55.0073 23.6307C55.0073 23.6762 55.0528 23.6762 55.0528 23.7217C58.0541 27.2232 59.7367 31.4069 60.146 35.7271ZM53.3247 54.1445L41.8195 40.411C41.3193 39.8198 40.4553 39.7744 39.9096 40.2291C39.3184 40.7293 39.2729 41.5934 39.7277 42.1391L51.2329 55.8725C46.8673 59.1013 41.5012 60.6474 36.0442 60.1472C30.1324 59.647 24.7209 56.8275 20.901 52.28C20.901 52.2345 20.8555 52.2345 20.8555 52.1891C20.8555 52.1436 20.8555 52.0526 20.8555 52.0072C20.8555 48.4601 21.8105 44.6402 23.6295 41.0022C23.9933 40.3201 23.7204 39.5015 23.0383 39.1832C22.3562 38.8649 21.5376 39.0922 21.2193 39.7744C19.7641 42.6848 18.8091 45.6406 18.3999 48.5965C16.308 44.7766 15.3985 40.4565 15.8078 36.0454C16.308 30.1336 19.1275 24.7221 23.675 20.9022C27.8587 17.4461 32.9064 15.718 37.9996 15.718C42.9564 15.718 47.8222 17.3551 51.8695 20.5384C44.6845 20.311 36.9537 23.1305 30.4962 28.4511C26.4489 28.9513 22.6745 30.1791 19.2184 32.1345C18.5818 32.4983 18.3089 33.3169 18.7182 33.999C19.082 34.6357 19.9005 34.9085 20.5827 34.4992C23.8569 32.6802 27.4494 31.4979 31.2693 31.0886C41.4557 29.9517 53.5066 34.2264 60.2824 39.0468C59.9641 44.6402 57.6449 50.0972 53.3247 54.1445Z" fill="#090909"/>
<path d="M27.8133 27.2687C27.404 27.2687 27.0402 27.0868 26.7674 26.7685L24.6755 24.2218C24.2208 23.6307 24.2663 22.7666 24.8574 22.3119C25.4486 21.8571 26.3126 21.9026 26.7674 22.4938L28.8593 25.0404C29.314 25.6316 29.2685 26.4956 28.6774 26.9504C28.4045 27.1777 28.1316 27.2687 27.8133 27.2687Z" fill="#090909"/>
<path d="M33.6466 32.8933C35.5704 31.2788 35.8213 28.4105 34.2068 26.4866C32.5924 24.5627 29.724 24.3118 27.8001 25.9263C25.8763 27.5407 25.6254 30.4091 27.2399 32.333C28.8543 34.2569 31.7227 34.5077 33.6466 32.8933Z" fill="white"/>
<path d="M30.7237 35.3177C30.5418 35.3177 30.3599 35.3177 30.178 35.2722C28.5863 35.1358 27.1766 34.4082 26.1761 33.1803C25.1757 31.9525 24.6755 30.4518 24.8119 28.8602C24.9483 27.2686 25.6759 25.8588 26.9037 24.8584C28.1316 23.8579 29.6322 23.3577 31.2239 23.4941C32.8155 23.6306 34.2252 24.3582 35.2257 25.586C37.3175 28.0871 36.9992 31.8161 34.4981 33.9079C33.4522 34.8174 32.1334 35.3177 30.7237 35.3177ZM30.7237 26.2226C29.9961 26.2226 29.2684 26.4955 28.6773 26.9502C28.0406 27.496 27.6313 28.269 27.5404 29.1331C27.4494 29.9971 27.7223 30.8156 28.268 31.4523C29.4049 32.8165 31.4058 32.953 32.77 31.8616C34.1343 30.7247 34.2707 28.7238 33.1793 27.3595C32.6336 26.7229 31.8605 26.3136 30.9965 26.2226C30.9056 26.2226 30.8146 26.2226 30.7237 26.2226Z" fill="#090909"/>
</svg>
