<svg width="211" height="44" viewBox="0 0 211 44" fill="none" xmlns="http://www.w3.org/2000/svg">
<path d="M208.725 20.9635L203.739 21.2703C203.654 20.8442 203.471 20.4607 203.189 20.1198C202.908 19.7703 202.537 19.4933 202.077 19.2888C201.626 19.0757 201.084 18.9692 200.454 18.9692C199.61 18.9692 198.898 19.1482 198.319 19.5061C197.739 19.8556 197.449 20.3243 197.449 20.9124C197.449 21.3811 197.637 21.7774 198.012 22.1013C198.387 22.4252 199.03 22.6851 199.942 22.8811L203.496 23.597C205.405 23.9891 206.829 24.6198 207.766 25.4891C208.704 26.3584 209.172 27.5004 209.172 28.9152C209.172 30.2021 208.793 31.3314 208.035 32.303C207.285 33.2746 206.253 34.0331 204.941 34.5786C203.637 35.1155 202.133 35.384 200.428 35.384C197.829 35.384 195.758 34.8428 194.215 33.7604C192.681 32.6695 191.782 31.1865 191.518 29.3115L196.874 29.0303C197.036 29.8229 197.428 30.428 198.05 30.8456C198.672 31.2547 199.469 31.4593 200.441 31.4593C201.395 31.4593 202.162 31.276 202.742 30.9095C203.33 30.5345 203.628 30.053 203.637 29.4649C203.628 28.9706 203.42 28.5658 203.01 28.2504C202.601 27.9266 201.971 27.6794 201.118 27.509L197.718 26.8314C195.8 26.4479 194.373 25.7831 193.435 24.8371C192.506 23.8911 192.042 22.6851 192.042 21.2192C192.042 19.9578 192.383 18.8712 193.064 17.9592C193.755 17.0473 194.722 16.3442 195.966 15.8499C197.219 15.3556 198.685 15.1084 200.364 15.1084C202.844 15.1084 204.796 15.6325 206.219 16.6808C207.651 17.7291 208.486 19.1567 208.725 20.9635Z" fill="#090909"/>
<path d="M188.51 20.9635L183.524 21.2703C183.439 20.8442 183.256 20.4607 182.975 20.1198C182.693 19.7703 182.323 19.4933 181.862 19.2888C181.411 19.0757 180.869 18.9692 180.239 18.9692C179.395 18.9692 178.683 19.1482 178.104 19.5061C177.524 19.8556 177.235 20.3243 177.235 20.9124C177.235 21.3811 177.422 21.7774 177.797 22.1013C178.172 22.4252 178.816 22.6851 179.727 22.8811L183.281 23.597C185.191 23.9891 186.614 24.6198 187.551 25.4891C188.489 26.3584 188.958 27.5004 188.958 28.9152C188.958 30.2021 188.578 31.3314 187.82 32.303C187.07 33.2746 186.039 34.0331 184.726 34.5786C183.422 35.1155 181.918 35.384 180.213 35.384C177.614 35.384 175.543 34.8428 174 33.7604C172.466 32.6695 171.567 31.1865 171.303 29.3115L176.659 29.0303C176.821 29.8229 177.213 30.428 177.835 30.8456C178.458 31.2547 179.254 31.4593 180.226 31.4593C181.181 31.4593 181.948 31.276 182.527 30.9095C183.115 30.5345 183.414 30.053 183.422 29.4649C183.414 28.9706 183.205 28.5658 182.796 28.2504C182.387 27.9266 181.756 27.6794 180.904 27.509L177.503 26.8314C175.585 26.4479 174.158 25.7831 173.22 24.8371C172.291 23.8911 171.827 22.6851 171.827 21.2192C171.827 19.9578 172.168 18.8712 172.85 17.9592C173.54 17.0473 174.507 16.3442 175.752 15.8499C177.004 15.3556 178.47 15.1084 180.149 15.1084C182.629 15.1084 184.581 15.6325 186.004 16.6808C187.436 17.7291 188.271 19.1567 188.51 20.9635Z" fill="#090909"/>
<path d="M159.605 35.384C157.585 35.384 155.847 34.9749 154.389 34.1567C152.94 33.33 151.824 32.1624 151.04 30.6539C150.256 29.1368 149.864 27.3428 149.864 25.2717C149.864 23.2519 150.256 21.4791 151.04 19.9536C151.824 18.428 152.928 17.2391 154.351 16.3868C155.783 15.5345 157.462 15.1084 159.388 15.1084C160.683 15.1084 161.889 15.3172 163.006 15.7348C164.131 16.1439 165.111 16.7618 165.946 17.5885C166.79 18.4152 167.446 19.455 167.915 20.7078C168.384 21.9521 168.618 23.4095 168.618 25.08V26.5757H152.037V23.2007H163.492C163.492 22.4166 163.321 21.722 162.98 21.1169C162.639 20.5118 162.166 20.0388 161.561 19.6979C160.965 19.3485 160.27 19.1737 159.477 19.1737C158.651 19.1737 157.918 19.3655 157.279 19.749C156.648 20.124 156.154 20.6311 155.796 21.2703C155.438 21.901 155.254 22.6041 155.246 23.3797V26.5885C155.246 27.5601 155.425 28.3996 155.783 29.107C156.149 29.8144 156.665 30.3598 157.33 30.7433C157.994 31.1269 158.783 31.3186 159.695 31.3186C160.3 31.3186 160.854 31.2334 161.357 31.0629C161.86 30.8925 162.29 30.6368 162.648 30.2959C163.006 29.955 163.279 29.5374 163.466 29.0431L168.503 29.3754C168.247 30.5857 167.723 31.6425 166.931 32.5459C166.146 33.4408 165.132 34.1396 163.888 34.6425C162.652 35.1368 161.225 35.384 159.605 35.384Z" fill="#090909"/>
<path d="M133.708 23.6482V35.0004H128.262V15.3641H133.452V18.8286H133.682C134.117 17.6865 134.846 16.7831 135.868 16.1183C136.891 15.445 138.131 15.1084 139.589 15.1084C140.952 15.1084 142.141 15.4067 143.155 16.0033C144.17 16.5999 144.958 17.4521 145.52 18.5601C146.083 19.6595 146.364 20.972 146.364 22.4976V35.0004H140.918V23.4692C140.927 22.2675 140.62 21.33 139.998 20.6567C139.376 19.9749 138.519 19.634 137.428 19.634C136.695 19.634 136.047 19.7916 135.485 20.107C134.931 20.4223 134.496 20.8825 134.181 21.4877C133.874 22.0842 133.717 22.8044 133.708 23.6482Z" fill="#090909"/>
<path d="M118.453 35.0003V15.3639H123.899V35.0003H118.453ZM121.189 12.8327C120.379 12.8327 119.685 12.5642 119.105 12.0273C118.534 11.4818 118.249 10.8299 118.249 10.0713C118.249 9.32133 118.534 8.67787 119.105 8.14094C119.685 7.59548 120.379 7.32275 121.189 7.32275C121.999 7.32275 122.689 7.59548 123.26 8.14094C123.84 8.67787 124.129 9.32133 124.129 10.0713C124.129 10.8299 123.84 11.4818 123.26 12.0273C122.689 12.5642 121.999 12.8327 121.189 12.8327Z" fill="#090909"/>
<path d="M114.577 20.9635L109.591 21.2703C109.506 20.8442 109.322 20.4607 109.041 20.1198C108.76 19.7703 108.389 19.4933 107.929 19.2888C107.477 19.0757 106.936 18.9692 106.305 18.9692C105.461 18.9692 104.75 19.1482 104.17 19.5061C103.591 19.8556 103.301 20.3243 103.301 20.9124C103.301 21.3811 103.488 21.7774 103.863 22.1013C104.238 22.4252 104.882 22.6851 105.794 22.8811L109.348 23.597C111.257 23.9891 112.68 24.6198 113.618 25.4891C114.555 26.3584 115.024 27.5004 115.024 28.9152C115.024 30.2021 114.645 31.3314 113.886 32.303C113.136 33.2746 112.105 34.0331 110.792 34.5786C109.488 35.1155 107.984 35.384 106.28 35.384C103.68 35.384 101.609 34.8428 100.067 33.7604C98.5325 32.6695 97.6333 31.1865 97.3691 29.3115L102.726 29.0303C102.888 29.8229 103.28 30.428 103.902 30.8456C104.524 31.2547 105.321 31.4593 106.292 31.4593C107.247 31.4593 108.014 31.276 108.594 30.9095C109.182 30.5345 109.48 30.053 109.488 29.4649C109.48 28.9706 109.271 28.5658 108.862 28.2504C108.453 27.9266 107.822 27.6794 106.97 27.509L103.569 26.8314C101.652 26.4479 100.224 25.7831 99.2868 24.8371C98.3578 23.8911 97.8933 22.6851 97.8933 21.2192C97.8933 19.9578 98.2342 18.8712 98.916 17.9592C99.6064 17.0473 100.574 16.3442 101.818 15.8499C103.071 15.3556 104.537 15.1084 106.216 15.1084C108.696 15.1084 110.648 15.6325 112.071 16.6808C113.503 17.7291 114.338 19.1567 114.577 20.9635Z" fill="#090909"/>
<path d="M88.4363 26.6393V15.3638H93.8823V35.0001H88.6537V31.4334H88.4491C88.0059 32.5839 87.2687 33.5087 86.2375 34.2075C85.2147 34.9064 83.9662 35.2558 82.4917 35.2558C81.1792 35.2558 80.0244 34.9575 79.0272 34.3609C78.0301 33.7643 77.2502 32.9163 76.6877 31.8169C76.1338 30.7175 75.8525 29.4007 75.844 27.8666V15.3638H81.29V26.895C81.2985 28.0541 81.6096 28.9703 82.2233 29.6436C82.8369 30.3169 83.6593 30.6535 84.6906 30.6535C85.3468 30.6535 85.9605 30.5044 86.5315 30.2061C87.1025 29.8993 87.5627 29.4476 87.9122 28.851C88.2701 28.2544 88.4448 27.5172 88.4363 26.6393Z" fill="#090909"/>
<path d="M53.0596 35.0002V8.81836H58.5056V18.6621H58.6718C58.9104 18.1337 59.2556 17.5968 59.7073 17.0513C60.1675 16.4973 60.7641 16.0371 61.4971 15.6706C62.2385 15.2956 63.159 15.1081 64.2584 15.1081C65.6903 15.1081 67.0113 15.4831 68.2215 16.2331C69.4317 16.9746 70.3991 18.0953 71.1235 19.5953C71.8479 21.0868 72.2101 22.9576 72.2101 25.2076C72.2101 27.3979 71.8564 29.2473 71.1491 30.7559C70.4502 32.2559 69.4957 33.3936 68.2854 34.1692C67.0837 34.9363 65.7371 35.3198 64.2457 35.3198C63.1888 35.3198 62.2897 35.1451 61.5482 34.7956C60.8153 34.4462 60.2144 34.0073 59.7457 33.4789C59.2769 32.9419 58.9189 32.4007 58.6718 31.8553H58.4289V35.0002H53.0596ZM58.3905 25.182C58.3905 26.3496 58.5525 27.3681 58.8763 28.2374C59.2002 29.1067 59.6689 29.7843 60.2826 30.2701C60.8962 30.7473 61.642 30.986 62.5198 30.986C63.4062 30.986 64.1562 30.7431 64.7698 30.2573C65.3834 29.763 65.8479 29.0811 66.1633 28.2118C66.4871 27.334 66.6491 26.324 66.6491 25.182C66.6491 24.0485 66.4914 23.0513 66.176 22.1905C65.8607 21.3297 65.3962 20.6564 64.7826 20.1706C64.1689 19.6848 63.4147 19.4419 62.5198 19.4419C61.6334 19.4419 60.8834 19.6763 60.2698 20.1451C59.6647 20.6138 59.2002 21.2786 58.8763 22.1394C58.5525 23.0002 58.3905 24.0144 58.3905 25.182Z" fill="#090909"/>
<path fill-rule="evenodd" clip-rule="evenodd" d="M21.9612 16.25L27.8523 22.1411L22.2431 27.7503L16.352 21.8592L21.9612 16.25ZM15.9212 10.2099L12.2277 6.51641C12.017 6.30573 12.017 5.96415 12.2277 5.75347L17.5048 0.476371C17.7154 0.265689 18.057 0.265689 18.2677 0.476371L36.3084 18.517C38.3098 20.5185 38.3099 23.7636 36.3084 25.7651L28.2831 33.7903L31.9766 37.4838C32.1873 37.6945 32.1873 38.0361 31.9766 38.2468L26.6995 43.5239C26.4888 43.7346 26.1472 43.7346 25.9366 43.5239L7.8959 25.4832C5.8944 23.4817 5.8944 20.2367 7.8959 18.2352L15.9212 10.2099Z" fill="#090909"/>
</svg>
