<svg width="223" height="44" viewBox="0 0 223 44" fill="none" xmlns="http://www.w3.org/2000/svg">
<path d="M215.387 14.5H220.631L213.715 33.5C211.739 38.972 208.509 41.366 203.683 41.1V36.54C206.381 36.578 207.749 35.438 208.661 32.892L200.871 14.5H206.229L211.169 27.268L215.387 14.5Z" fill="#090909"/>
<path d="M192.04 13.9678C196.068 13.9678 199.222 16.7798 199.222 21.8338V33.4998H194.32V22.4418C194.32 19.8578 192.762 18.5278 190.558 18.5278C188.164 18.5278 186.378 19.9338 186.378 23.2398V33.4998H181.476V14.4998H186.378V16.6278C187.518 14.9178 189.494 13.9678 192.04 13.9678Z" fill="#090909"/>
<path d="M172.128 14.4998H177.03V33.4998H172.128V31.2578C170.76 32.9678 168.708 34.0318 165.934 34.0318C160.88 34.0318 156.7 29.6618 156.7 23.9998C156.7 18.3378 160.88 13.9678 165.934 13.9678C168.708 13.9678 170.76 15.0318 172.128 16.7418V14.4998ZM166.846 29.3578C169.886 29.3578 172.128 27.1918 172.128 23.9998C172.128 20.8078 169.886 18.6418 166.846 18.6418C163.844 18.6418 161.602 20.8078 161.602 23.9998C161.602 27.1918 163.844 29.3578 166.846 29.3578Z" fill="#090909"/>
<path d="M144.959 13.9678C150.051 13.9678 154.231 18.3378 154.231 23.9998C154.231 29.6618 150.051 34.0318 144.959 34.0318C142.185 34.0318 140.171 33.0058 138.803 31.2578V41.0998H133.901V14.4998H138.803V16.7418C140.171 14.9938 142.185 13.9678 144.959 13.9678ZM144.047 29.3578C147.087 29.3578 149.329 27.1918 149.329 23.9998C149.329 20.8078 147.087 18.6418 144.047 18.6418C141.045 18.6418 138.803 20.8078 138.803 23.9998C138.803 27.1918 141.045 29.3578 144.047 29.3578Z" fill="#090909"/>
<path d="M122.556 13.9678C126.888 13.9678 129.738 17.0458 129.738 21.7958V33.4998H124.836V22.1378C124.836 19.8958 123.696 18.5278 121.644 18.5278C119.478 18.5278 118.11 19.9718 118.11 22.8218V33.4998H113.208V22.1378C113.208 19.8958 112.068 18.5278 110.016 18.5278C107.926 18.5278 106.444 19.9718 106.444 22.8218V33.4998H101.542V14.4998H106.444V16.5138C107.508 14.9178 109.294 13.9678 111.726 13.9678C114.082 13.9678 115.83 14.9558 116.894 16.7038C118.072 14.9938 119.972 13.9678 122.556 13.9678Z" fill="#090909"/>
<path d="M88.0235 34.0318C82.4375 34.0318 77.9915 29.6618 77.9915 23.9998C77.9915 18.3378 82.4375 13.9678 88.0235 13.9678C93.6095 13.9678 98.0935 18.3378 98.0935 23.9998C98.0935 29.6618 93.6095 34.0318 88.0235 34.0318ZM88.0235 29.2438C90.9495 29.2438 93.1915 27.0778 93.1915 23.9998C93.1915 20.9218 90.9495 18.7558 88.0235 18.7558C85.1355 18.7558 82.8935 20.9218 82.8935 23.9998C82.8935 27.0778 85.1355 29.2438 88.0235 29.2438Z" fill="#090909"/>
<path d="M68.0957 34.0318C62.3197 34.0318 58.0637 29.6618 58.0637 23.9998C58.0637 18.3378 62.3197 13.9678 68.0957 13.9678C71.8197 13.9678 75.0497 15.9438 76.6077 18.8698L72.3897 21.3398C71.6297 19.7818 69.9957 18.7938 68.0577 18.7938C65.1317 18.7938 62.9657 20.9598 62.9657 23.9998C62.9657 27.0018 65.1317 29.1678 68.0577 29.1678C70.0337 29.1678 71.6677 28.2178 72.4277 26.6598L76.6837 29.0918C75.0497 32.0558 71.8197 34.0318 68.0957 34.0318Z" fill="#090909"/>
<path fill-rule="evenodd" clip-rule="evenodd" d="M16.2296 3.4043C14.59 3.4043 13.2609 4.73342 13.2609 6.37297V15.6453H3.81755C2.178 15.6453 0.848877 16.9744 0.848877 18.614V40.5021C0.848877 42.1416 2.178 43.4708 3.81755 43.4708H25.4456C27.0851 43.4708 28.4143 42.1416 28.4143 40.5021V31.2297H37.8576C39.4972 31.2297 40.8263 29.9006 40.8263 28.2611V6.37297C40.8263 4.73342 39.4972 3.4043 37.8576 3.4043H16.2296ZM28.4143 31.2297V18.614C28.4143 16.9744 27.0851 15.6453 25.4456 15.6453H13.2609V28.2611C13.2609 29.9006 14.59 31.2297 16.2296 31.2297H28.4143Z" fill="#090909"/>
</svg>
