<svg width="172" height="172" viewBox="0 0 172 172" fill="none" xmlns="http://www.w3.org/2000/svg">
<circle cx="86" cy="86" r="86" fill="#FFF3E0"/>
<mask id="mask0_1308_20884" style="mask-type:alpha" maskUnits="userSpaceOnUse" x="0" y="0" width="172" height="172">
<circle cx="86" cy="86" r="86" fill="#F0ECE8"/>
</mask>
<g mask="url(#mask0_1308_20884)">
<path d="M124.964 128.835H46.4479C41.6497 128.835 37.7239 124.909 37.7239 120.111V67.7665C37.7239 62.9683 41.6497 59.0425 46.4479 59.0425H124.964C129.762 59.0425 133.688 62.9683 133.688 67.7665V120.111C133.688 124.909 129.762 128.835 124.964 128.835Z" fill="#FF9C08"/>
<path d="M124.964 131.452H46.4479C40.1666 131.452 35.1067 126.392 35.1067 120.11V67.7664C35.1067 61.4851 40.1666 56.4252 46.4479 56.4252H124.964C131.245 56.4252 136.305 61.4851 136.305 67.7664V120.11C136.305 126.392 131.245 131.452 124.964 131.452ZM46.4479 61.6596C43.0455 61.6596 40.3411 64.364 40.3411 67.7664V120.11C40.3411 123.513 43.0455 126.217 46.4479 126.217H124.964C128.366 126.217 131.071 123.513 131.071 120.11V67.7664C131.071 64.364 128.366 61.6596 124.964 61.6596H46.4479Z" fill="#090909"/>
<path d="M103.154 61.6596C101.671 61.6596 100.537 60.5255 100.537 59.0424C100.537 51.3653 94.2554 45.084 86.5783 45.084H84.8334C80.3842 45.084 76.3712 47.0905 73.6667 50.6674C72.7943 51.8015 71.1368 52.0632 70.0026 51.1908C68.8685 50.3184 68.6068 48.6609 69.4792 47.5267C73.1433 42.6413 78.7266 39.8496 84.8334 39.8496H86.5783C97.1343 39.8496 105.771 48.4864 105.771 59.0424C105.771 60.5255 104.637 61.6596 103.154 61.6596Z" fill="#090909"/>
<path d="M101.409 87.8317H91.8127V78.2352C91.8127 76.7522 90.6786 75.618 89.1955 75.618H82.2163C80.7332 75.618 79.5991 76.7522 79.5991 78.2352V87.8317H70.0027C68.5196 87.8317 67.3855 88.9658 67.3855 90.4489V97.4281C67.3855 98.9112 68.5196 100.045 70.0027 100.045H79.5991V109.642C79.5991 111.125 80.7332 112.259 82.2163 112.259H89.1955C90.6786 112.259 91.8127 111.125 91.8127 109.642V100.045H101.409C102.892 100.045 104.026 98.9112 104.026 97.4281V90.4489C104.026 88.9658 102.892 87.8317 101.409 87.8317Z" fill="white"/>
</g>
</svg>
