<svg width="76" height="76" viewBox="0 0 76 76" fill="none" xmlns="http://www.w3.org/2000/svg">
<circle cx="38" cy="38" r="38" fill="#FFF3E0"/>
<path d="M45.295 22.326C45.2924 22.326 45.2898 22.326 45.2871 22.326C45.2861 22.326 45.285 22.326 45.284 22.326C45.2829 22.326 45.2819 22.326 45.2808 22.326C44.6755 22.3271 44.0707 22.3801 43.4754 22.4752C43.0522 22.545 42.6364 22.639 42.2295 22.755C46.8332 24.0769 50.23 28.1646 50.23 33.0886C50.23 36.4486 48.602 37.7611 46.135 41.3841L37 53.1436L52.33 41.3836C54.7975 39.3886 56.425 36.4486 56.425 33.0886C56.425 27.1036 51.385 22.326 45.295 22.326Z" fill="#FF9C08"/>
<path d="M28.705 22.326C32.065 22.326 35.0575 23.7435 37 26.0011C39.0475 23.7435 42.04 22.326 45.295 22.326C51.3855 22.326 56.425 27.1036 56.425 33.0886C56.425 36.4486 54.85 39.4416 52.33 41.3841L37 53.1436L21.9325 41.5936C19.255 39.5986 17.575 36.5011 17.575 33.0886C17.575 27.1561 22.51 22.326 28.705 22.326Z" fill="#FF9C08"/>
<path d="M28.7049 25.5284C24.3999 25.5284 20.9349 28.9409 20.9349 33.0879C20.9349 33.9804 21.6174 34.6629 22.5099 34.6629C23.4024 34.6629 24.0849 33.9804 24.0849 33.0879C24.0849 30.6729 26.1849 28.6784 28.7049 28.6784C29.5974 28.6784 30.2799 27.9959 30.2799 27.1034C30.2799 26.2109 29.5974 25.5284 28.7049 25.5284Z" fill="white"/>
<path d="M37 54.7185C36.685 54.7185 36.3175 54.6135 36.055 54.4035L20.9875 42.8535C17.8375 40.5435 16 36.9735 16 33.0885C16 26.2635 21.7225 20.751 28.705 20.751C31.8025 20.751 34.795 21.8535 37 23.796C39.31 21.8535 42.25 20.751 45.295 20.751C52.2775 20.751 58 26.2635 58 33.0885C58 36.7635 56.32 40.281 53.3275 42.6435L37.945 54.4035C37.6825 54.6135 37.315 54.7185 37 54.7185ZM28.705 23.901C23.455 23.901 19.15 28.0485 19.15 33.0885C19.15 35.976 20.515 38.601 22.8775 40.3335L37 51.201L51.385 40.176C53.59 38.4435 54.85 35.871 54.85 33.141C54.85 28.0485 50.545 23.9535 45.295 23.9535C42.565 23.9535 39.9925 25.1085 38.155 27.1035C37.84 27.4185 37.42 27.6285 37 27.6285C36.5275 27.6285 36.1075 27.4185 35.845 27.1035C34.06 25.056 31.4875 23.901 28.705 23.901Z" fill="#090909"/>
</svg>
