<svg width="197" height="44" viewBox="0 0 197 44" fill="none" xmlns="http://www.w3.org/2000/svg">
<path d="M186.001 13.5298C191.221 13.5298 194.641 17.1658 194.641 22.0258C194.641 22.8538 194.497 23.6098 194.353 24.2938H181.465C181.753 27.1738 184.165 28.6858 186.865 28.6858C188.989 28.6858 190.573 27.7858 191.689 26.6338L194.281 29.7298C192.013 31.8898 189.673 32.7538 186.649 32.7538C180.601 32.7538 176.605 28.5418 176.605 23.1778C176.605 17.8138 180.529 13.5298 186.001 13.5298ZM185.965 17.4538C183.661 17.4538 181.861 18.8218 181.465 21.1258H190.069V21.0898C189.889 18.8218 188.161 17.4538 185.965 17.4538Z" fill="#090909"/>
<path d="M162.881 13.962H165.617V8.95801H170.153V13.962H174.509V17.706H170.153V25.878C170.153 27.642 171.017 28.542 172.709 28.542C173.249 28.542 174.149 28.47 174.977 27.93V32.034C174.149 32.466 173.033 32.754 171.485 32.754C167.741 32.754 165.473 30.558 165.473 26.562V17.706H162.881V13.962Z" fill="#090909"/>
<path d="M142.213 13.9619H146.893V24.5459C146.893 27.1739 148.441 28.5779 150.601 28.5779C153.517 28.5779 154.813 25.9139 154.813 23.4299V13.9619H159.493V32.3219H154.993V29.8019C153.841 31.7099 152.041 32.7539 149.341 32.7539C145.021 32.7539 142.213 29.9459 142.213 25.0859V13.9619Z" fill="#090909"/>
<path d="M127.268 13.962H130.004V8.95801H134.54V13.962H138.896V17.706H134.54V25.878C134.54 27.642 135.404 28.542 137.096 28.542C137.636 28.542 138.536 28.47 139.364 27.93V32.034C138.536 32.466 137.42 32.754 135.872 32.754C132.128 32.754 129.86 30.558 129.86 26.562V17.706H127.268V13.962Z" fill="#090909"/>
<path d="M119.193 32.3219V13.9619H123.873V32.3219H119.193ZM121.497 6.00586C122.973 6.00586 124.197 7.08586 124.197 8.63386C124.197 10.1819 122.973 11.2979 121.497 11.2979C119.949 11.2979 118.797 10.1819 118.797 8.63386C118.797 7.08586 119.949 6.00586 121.497 6.00586Z" fill="#090909"/>
<path d="M103.819 13.962H106.555V8.95801H111.091V13.962H115.447V17.706H111.091V25.878C111.091 27.642 111.955 28.542 113.647 28.542C114.187 28.542 115.087 28.47 115.915 27.93V32.034C115.087 32.466 113.971 32.754 112.423 32.754C108.679 32.754 106.411 30.558 106.411 26.562V17.706H103.819V13.962Z" fill="#090909"/>
<path d="M94.6857 32.7538C91.3737 32.7538 88.5297 31.2058 87.1257 28.6138L90.2937 26.2738C91.3017 27.8578 92.7057 28.9738 94.6857 28.9738C96.4137 28.9738 97.4577 28.3618 97.4577 27.3898C97.4577 26.2378 96.4857 25.7698 93.4977 24.7618C89.7537 23.5018 87.7377 22.0258 87.7377 19.0018C87.7377 15.8338 90.8337 13.5298 94.7937 13.5298C97.8177 13.5298 100.302 14.9698 101.49 17.1658L98.3577 19.4338C97.6017 18.1738 96.4497 17.2738 94.7217 17.2738C93.2457 17.2738 92.1297 17.9578 92.1297 18.9658C92.1297 19.9378 93.1017 20.4418 95.9457 21.4498C99.4377 22.7098 101.85 23.9338 101.85 27.2818C101.85 30.3778 98.9337 32.7538 94.6857 32.7538Z" fill="#090909"/>
<path d="M66.4934 13.9618H70.9934V16.4818C72.1454 14.5738 73.9454 13.5298 76.6454 13.5298C80.9654 13.5298 83.7734 16.3378 83.7734 21.1978V32.3218H79.0934V21.7378C79.0934 19.1098 77.5454 17.7058 75.3854 17.7058C72.4694 17.7058 71.1734 20.3338 71.1734 22.8538V32.3218H66.4934V13.9618Z" fill="#090909"/>
<path d="M56.4739 32.3219V13.9619H61.1539V32.3219H56.4739ZM58.7779 6.00586C60.2539 6.00586 61.4779 7.08586 61.4779 8.63386C61.4779 10.1819 60.2539 11.2979 58.7779 11.2979C57.2299 11.2979 56.0779 10.1819 56.0779 8.63386C56.0779 7.08586 57.2299 6.00586 58.7779 6.00586Z" fill="#090909"/>
<path fill-rule="evenodd" clip-rule="evenodd" d="M11.989 2.66944C5.30745 5.9075 0.700195 12.7546 0.700195 20.6777C0.700195 31.7234 9.6545 40.6777 20.7002 40.6777C28.6233 40.6777 35.4704 36.0705 38.7085 29.3889L20.7002 29.3889C15.919 29.3889 12.0374 25.537 11.9895 20.767H11.989V20.6884L11.989 20.6777L11.989 20.6671V2.66944ZM40.4239 24.0099C40.6056 22.9263 40.7002 21.813 40.7002 20.6777C40.7002 9.63204 31.7459 0.677734 20.7002 0.677734C19.5649 0.677734 18.4517 0.772329 17.368 0.954066V12.6266C18.3945 12.2013 19.52 11.9665 20.7002 11.9665C25.5113 11.9665 29.4114 15.8667 29.4114 20.6777C29.4114 21.858 29.1767 22.9834 28.7514 24.0099H40.4239Z" fill="#090909"/>
</svg>
