<svg width="32" height="32" viewBox="0 0 32 32" fill="none" xmlns="http://www.w3.org/2000/svg">
<g clip-path="url(#clip0_1302_20859)">
<path d="M31.0936 7.67897C29.6736 4.55896 26.7336 2.43896 23.4536 2.11896C20.7936 1.87896 18.1736 2.55896 16.0736 4.05896C16.0536 4.07896 16.0336 4.09896 16.0136 4.09896C15.9936 4.07896 15.9736 4.05896 15.9536 4.05896C13.8336 2.55896 11.2136 1.87896 8.57355 2.13896C5.27355 2.43896 2.35354 4.55896 0.913536 7.67897C-0.626467 11.019 -0.206466 14.859 2.07354 18.479C5.39355 23.759 11.0736 27.519 15.2536 29.739L15.9136 30.059V30.079H15.9336H15.9536L16.7536 29.759C20.9336 27.539 26.6336 23.779 29.9336 18.499C32.2136 14.859 32.6336 11.019 31.0936 7.67897ZM27.2136 16.579C24.4736 20.959 19.7136 24.219 15.9736 26.299V26.239C12.2336 24.179 7.53355 20.919 4.81355 16.579C3.19354 13.999 2.87354 11.379 3.87354 9.17897C4.79355 7.17897 6.75355 5.75897 8.85355 5.55897C10.5936 5.39897 12.2336 5.77897 13.5936 6.55897C12.7936 7.69897 12.2336 8.97897 11.9536 10.359C11.4136 12.899 11.8336 15.379 13.0336 16.959C13.8136 17.979 14.8736 18.539 15.9936 18.559C15.9936 18.559 15.9936 18.559 16.0136 18.559C16.0136 18.559 16.0136 18.559 16.0336 18.559C17.1536 18.559 18.2136 17.979 18.9936 16.959C20.2136 15.379 20.6136 12.899 20.0736 10.359C19.8736 9.39898 19.5336 8.47897 19.0736 7.61897C18.0336 8.19897 17.1736 9.01897 16.5536 10.019C16.6936 10.359 16.7936 10.739 16.8736 11.119C17.2536 12.939 16.8736 14.259 16.4336 14.819C16.3736 14.919 16.1936 15.119 16.0136 15.119C15.8336 15.119 15.6736 14.899 15.5936 14.819C15.1536 14.239 14.7736 12.919 15.1536 11.119C15.8936 7.53897 19.2736 5.21897 23.1536 5.57897C25.2736 5.77897 27.2336 7.19897 28.1336 9.19897C29.1536 11.379 28.8136 13.999 27.2136 16.579Z" fill="#FF9C08"/>
</g>
<defs>
<clipPath id="clip0_1302_20859">
<rect width="32" height="32" fill="white"/>
</clipPath>
</defs>
</svg>
