<svg width="172" height="172" viewBox="0 0 172 172" fill="none" xmlns="http://www.w3.org/2000/svg">
<circle cx="86" cy="86" r="86" fill="#FFF3E0"/>
<mask id="mask0_1308_20882" style="mask-type:alpha" maskUnits="userSpaceOnUse" x="0" y="0" width="172" height="172">
<circle cx="86" cy="86" r="86" fill="#F0ECE8"/>
</mask>
<g mask="url(#mask0_1308_20882)">
<path d="M107.59 66.3185C109.178 63.3557 110.13 59.8637 110.13 56.1602C110.13 44.2031 100.501 34.5739 88.7552 34.5739C77.0097 34.5739 67.3805 44.2031 67.3805 56.1602C67.3805 56.6893 67.3805 57.1125 67.4863 57.6416C56.4815 61.3452 48.6511 71.8209 48.6511 84.2013C48.6511 99.6504 61.1373 112.242 76.4806 112.242H99.5484C112.564 112.242 123.039 101.661 123.039 88.5397C122.934 78.3814 116.585 69.7046 107.59 66.3185Z" fill="#FF9C08"/>
<path d="M85.7923 61.6622C83.9934 61.6622 82.6178 63.0378 82.6178 64.8367V79.2276L70.1316 72.8787C69.7083 72.667 69.1793 72.5612 68.6502 72.5612C67.4862 72.5612 66.428 73.1961 65.899 74.2543C65.1583 75.8415 65.6873 77.7462 67.2746 78.4869L82.512 86.4231V103.459C82.512 105.258 83.8876 106.634 85.6865 106.634C87.4853 106.634 88.8609 105.258 88.8609 103.459V101.555L104.204 93.8301C105.791 92.9836 106.426 91.0789 105.686 89.4917C105.157 88.4335 104.098 87.6928 102.934 87.6928C102.405 87.6928 101.982 87.7986 101.453 88.1161L88.9667 94.465V64.8367C88.9667 63.0378 87.5911 61.6622 85.7923 61.6622Z" fill="white"/>
<path d="M99.3367 115.522H76.2689C59.2327 115.522 45.265 101.555 45.265 84.3069C45.265 71.7149 52.7779 60.4984 64.1002 55.6309C64.5234 42.1924 75.3166 31.505 88.6494 31.505C102.194 31.505 113.199 42.6156 113.199 56.2658C113.199 59.1228 112.669 62.0857 111.717 64.7311C120.394 69.2811 126.002 78.4871 126.002 88.5395C126.108 103.46 114.151 115.522 99.3367 115.522ZM88.6494 37.8539C78.5969 37.8539 70.4491 46.1075 70.4491 56.2658C70.4491 56.6891 70.4491 57.1123 70.4491 57.5356C70.5549 59.017 69.7084 60.2868 68.3328 60.7101C58.2803 64.0962 51.6139 73.6196 51.6139 84.2011C51.6139 97.9571 62.6187 109.068 76.2689 109.068H99.3367C110.553 109.068 119.653 99.8618 119.653 88.5395C119.653 79.9685 114.363 72.244 106.426 69.2811C105.58 68.9637 104.945 68.3288 104.522 67.4823C104.204 66.6357 104.204 65.6834 104.733 64.8369C106.109 62.1915 106.85 59.2287 106.85 56.16C106.85 46.1075 98.7018 37.8539 88.6494 37.8539ZM85.6865 140.495C83.8877 140.495 82.5121 139.119 82.5121 137.32V120.919C82.5121 119.12 83.8877 117.745 85.6865 117.745C87.4854 117.745 88.861 119.12 88.861 120.919V137.32C88.861 139.119 87.4854 140.495 85.6865 140.495Z" fill="#090909"/>
</g>
</svg>
