<svg width="194" height="46" viewBox="0 0 194 46" fill="none" xmlns="http://www.w3.org/2000/svg">
<path d="M182.511 35.4116C180.509 35.4116 178.753 34.9864 177.244 34.1359C175.735 33.258 174.569 32.0371 173.746 30.4733C172.923 28.9095 172.511 27.0714 172.511 24.9589C172.511 22.8738 172.923 21.0494 173.746 19.4856C174.569 17.8944 175.735 16.6598 177.244 15.7819C178.753 14.8765 180.509 14.4238 182.511 14.4238C184.542 14.4238 186.297 14.8765 187.779 15.7819C189.288 16.6872 190.454 17.9355 191.277 19.5267C192.1 21.0905 192.511 22.8875 192.511 24.9177C192.511 25.2195 192.498 25.5213 192.47 25.8231C192.47 26.0974 192.443 26.3306 192.388 26.5227H176.915V22.4897H188.314L187.491 24.4239C187.491 22.7229 187.079 21.3375 186.256 20.2675C185.461 19.1975 184.212 18.6625 182.511 18.6625C181.03 18.6625 179.836 19.1289 178.931 20.0617C178.026 20.9671 177.573 22.1879 177.573 23.7243V25.9054C177.573 27.5241 178.026 28.7998 178.931 29.7326C179.864 30.6379 181.126 31.0906 182.717 31.0906C184.116 31.0906 185.214 30.8026 186.009 30.2264C186.805 29.6503 187.491 28.937 188.067 28.0865L191.812 30.2264C190.906 31.9 189.672 33.1894 188.108 34.0948C186.572 34.9727 184.706 35.4116 182.511 35.4116Z" fill="#090909"/>
<path d="M163.953 14.8765L165.311 20.4321V35.0001H159.92V14.8765H163.953ZM164.2 23.1893L163.212 22.7367V18.6214L163.583 18.1687C163.885 17.6749 164.337 17.1399 164.941 16.5638C165.572 15.9876 166.285 15.4938 167.081 15.0823C167.904 14.6433 168.754 14.4238 169.632 14.4238C170.071 14.4238 170.469 14.4513 170.826 14.5061C171.182 14.561 171.457 14.657 171.649 14.7942V19.6914H170.332C168.548 19.6914 167.177 19.9794 166.217 20.5556C165.256 21.1043 164.584 21.9822 164.2 23.1893Z" fill="#090909"/>
<path d="M143.84 35.4939C142.331 35.4939 141.124 35.2607 140.219 34.7943C139.314 34.3279 138.614 33.7106 138.12 32.9425C137.654 32.1468 137.338 31.2415 137.174 30.2264C137.009 29.2113 136.927 28.155 136.927 27.0576V14.8765H142.318V27.0988C142.318 28.3334 142.578 29.1564 143.1 29.5679C143.648 29.9795 144.293 30.1852 145.034 30.1852C145.72 30.1852 146.406 30.0618 147.091 29.8149C147.777 29.5679 148.422 29.2113 149.026 28.7449C149.657 28.2511 150.178 27.6886 150.589 27.0576L151.248 29.8972H149.931V14.8765H155.322V35.0001H151.289L150.178 31.1729L151.906 31.214C151.22 32.0097 150.439 32.7367 149.561 33.3951C148.71 34.0536 147.791 34.5748 146.803 34.9589C145.843 35.3156 144.855 35.4939 143.84 35.4939Z" fill="#090909"/>
<path d="M129.817 35.3706C127.759 35.3706 126.127 34.8356 124.92 33.7656C123.74 32.6682 123.15 30.9261 123.15 28.5392V15.1235L123.068 14.8766L124.179 10.144H128.541V27.675C128.541 28.553 128.747 29.1977 129.159 29.6092C129.598 29.9933 130.146 30.1854 130.805 30.1854C131.244 30.1854 131.641 30.1579 131.998 30.103C132.355 30.0207 132.67 29.9384 132.945 29.8561V34.8767C132.506 35.0414 132.039 35.1648 131.545 35.2471C131.052 35.3294 130.475 35.3706 129.817 35.3706ZM120.023 19.8561V14.8766H132.945V19.8561H120.023Z" fill="#090909"/>
<path d="M110.813 14.4238C112.184 14.4238 113.282 14.657 114.105 15.1234C114.955 15.5898 115.586 16.2208 115.998 17.0164C116.437 17.8121 116.725 18.7174 116.862 19.7325C116.999 20.7202 117.068 21.749 117.068 22.819V35.0001H111.677V22.7778C111.677 21.5432 111.43 20.7202 110.936 20.3086C110.47 19.8971 109.866 19.6914 109.125 19.6914C108.44 19.6914 107.74 19.8285 107.027 20.1029C106.313 20.3498 105.641 20.7202 105.01 21.214C104.407 21.6804 103.885 22.2154 103.446 22.819L102.747 20.0206H104.105V35.0001H98.7139V14.8765H102.747L103.858 18.7449L102.13 18.6625C102.843 17.8395 103.652 17.1125 104.558 16.4815C105.49 15.8505 106.478 15.3566 107.521 15C108.563 14.6159 109.66 14.4238 110.813 14.4238Z" fill="#090909"/>
<path d="M85.4171 35.4116C83.4143 35.4116 81.6585 34.9864 80.1495 34.1359C78.6406 33.258 77.4746 32.0371 76.6516 30.4733C75.8285 28.9095 75.417 27.0714 75.417 24.9589C75.417 22.8738 75.8285 21.0494 76.6516 19.4856C77.4746 17.8944 78.6406 16.6598 80.1495 15.7819C81.6585 14.8765 83.4143 14.4238 85.4171 14.4238C87.4473 14.4238 89.2031 14.8765 90.6846 15.7819C92.1935 16.6872 93.3595 17.9355 94.1826 19.5267C95.0056 21.0905 95.4172 22.8875 95.4172 24.9177C95.4172 25.2195 95.4034 25.5213 95.376 25.8231C95.376 26.0974 95.3486 26.3306 95.2937 26.5227H79.8203V22.4897H91.2196L90.3965 24.4239C90.3965 22.7229 89.985 21.3375 89.162 20.2675C88.3663 19.1975 87.118 18.6625 85.4171 18.6625C83.9356 18.6625 82.7422 19.1289 81.8368 20.0617C80.9314 20.9671 80.4788 22.1879 80.4788 23.7243V25.9054C80.4788 27.5241 80.9314 28.7998 81.8368 29.7326C82.7696 30.6379 84.0316 31.0906 85.6228 31.0906C87.022 31.0906 88.1194 30.8026 88.915 30.2264C89.7107 29.6503 90.3965 28.937 90.9727 28.0865L94.7176 30.2264C93.8122 31.9 92.5776 33.1894 91.0138 34.0948C89.4775 34.9727 87.6119 35.4116 85.4171 35.4116Z" fill="#090909"/>
<path d="M74.5919 14.8765L67.2256 35.0001H62.0404L54.3037 14.8765H59.9828L65.2503 30.2675H63.9746L69.0363 14.8765H74.5919Z" fill="#090909"/>
<path fill-rule="evenodd" clip-rule="evenodd" d="M15.5771 3C14.8757 3 14.3072 3.56853 14.3072 4.26984L14.3072 16.3333C6.94342 16.3333 0.973877 22.3029 0.973877 29.6667C0.973877 37.0305 6.94341 43 14.3072 43H26.3707C27.072 43 27.6405 42.4315 27.6405 41.7302L27.6405 29.6667C35.0043 29.6667 40.9739 23.6971 40.9739 16.3333C40.9739 8.96954 35.0043 3 27.6405 3H15.5771ZM27.6405 29.6667L27.6405 17.6032C27.6405 16.9019 27.072 16.3333 26.3707 16.3333H14.3072L14.3072 28.3968C14.3072 29.0981 14.8757 29.6667 15.5771 29.6667H27.6405Z" fill="#090909"/>
<path d="M15.4341 3C14.8118 3 14.3074 3.50447 14.3074 4.12676L14.3074 16.3333H26.5139C27.1362 16.3333 27.6407 16.8378 27.6407 17.4601L27.6407 29.6667C35.0045 29.6667 40.974 23.6971 40.974 16.3333C40.974 8.96954 35.0045 3 27.6407 3H15.4341Z" fill="#090909"/>
</svg>
